<svg width="24" height="24" viewBox="0 0 24 24" fill="none" xmlns="http://www.w3.org/2000/svg">
<path d="M23.4327 0.57875C23.0556 0.200126 22.509 0 21.8519 0C20.9092 0 19.8593 0.417773 19.2328 1.04717L14.9375 5.58463L3.62908 3.63293C3.49821 3.61103 3.36462 3.65291 3.27084 3.74736L1.09471 5.93205C0.997651 6.02951 0.955666 6.1694 0.983201 6.30465C1.01074 6.43989 1.10398 6.55213 1.23129 6.60333L10.4508 10.3239L6.84584 14.1323L1.79509 13.9447C1.68522 13.9415 1.57126 13.9842 1.49084 14.0647L0.119782 15.4417C0.0172731 15.5447 -0.0233488 15.6947 0.0131836 15.8359C0.049716 15.9769 0.158223 16.0878 0.298082 16.1272L5.73242 17.6631L4.95787 18.4409C4.79811 18.601 4.79811 18.8614 4.95787 19.0215C5.03776 19.1017 5.14245 19.1417 5.24714 19.1417C5.35183 19.1417 5.45652 19.1017 5.5364 19.0215L6.31094 18.2438L7.84012 23.7005C7.87938 23.841 7.98979 23.9499 8.13047 23.9866C8.16455 23.9957 8.19917 24 8.2338 24C8.34094 24 8.44536 23.9579 8.52306 23.8799L9.89412 22.5031C9.97454 22.4223 10.0179 22.3117 10.0135 22.1975L9.83168 17.2508L13.6567 13.5995L17.3241 22.7634C17.3754 22.8915 17.4871 22.9852 17.6215 23.0128C17.7551 23.0402 17.8953 22.9983 17.9926 22.9009L20.1685 20.7159C20.2625 20.6217 20.3048 20.4876 20.2824 20.3562L18.3576 9.11161L22.9305 4.74635C23.8566 3.81635 24.5292 1.68013 23.4327 0.57875ZM17.636 8.66728C17.537 8.76173 17.4918 8.89944 17.5147 9.03441L19.4403 20.2855L17.8516 21.8805L14.1902 12.7317C14.1398 12.6055 14.0302 12.5127 13.8977 12.4836C13.7646 12.4552 13.627 12.4935 13.5288 12.5874L9.15065 16.7673C9.14029 16.7763 9.12857 16.7876 9.12039 16.7961C9.04405 16.8763 9.00316 16.9841 9.00725 17.095L9.18937 22.0483L8.438 22.8028L6.9737 17.5777L8.04732 16.4996C8.20708 16.3394 8.20708 16.0791 8.04732 15.9189C7.88756 15.7585 7.62883 15.7585 7.46907 15.9189L6.39545 16.997L1.19204 15.5269L1.9434 14.7721L7.00042 14.9599C7.11792 14.9648 7.23106 14.918 7.31204 14.8326L11.4587 10.4517C11.552 10.3532 11.5907 10.2144 11.5618 10.0813C11.5329 9.94825 11.4405 9.8382 11.3148 9.78755L2.1108 6.07331L3.69914 4.47833L15.0141 6.43113C15.1477 6.45358 15.2859 6.40841 15.3797 6.3093L19.8181 1.62044C20.2868 1.14983 21.1232 0.82131 21.8517 0.82131C22.1554 0.82131 22.5758 0.879897 22.8541 1.15942C23.4956 1.80387 23.1153 3.39913 22.3596 4.15802L17.636 8.66728Z" fill="#5284ED"/>
</svg>
